<svg width="24" height="24" fill="none" xmlns="http://www.w3.org/2000/svg"><path d="M10.75 4c-.682 0-1.25.568-1.25 1.25v.25H3.83A1.75 1.75 0 1 0 3.828 7h3.203a8.996 8.996 0 0 0-4.01 7H2.75c-.682 0-1.25.568-1.25 1.25v2c0 .682.568 1.25 1.25 1.25h2c.682 0 1.25-.568 1.25-1.25v-2C6 14.568 5.432 14 4.75 14h-.229A7.495 7.495 0 0 1 9.5 7.43v.32c0 .682.568 1.25 1.25 1.25h2.5c.682 0 1.25-.568 1.25-1.25v-.316A7.492 7.492 0 0 1 19.479 14h-.229c-.682 0-1.25.568-1.25 1.25v2c0 .682.568 1.25 1.25 1.25h2c.682 0 1.25-.568 1.25-1.25v-2c0-.682-.568-1.25-1.25-1.25h-.266c-.162-2.93-1.742-5.475-4.054-7h3.24a1.75 1.75 0 1 0 .002-1.5H14.5v-.25c0-.682-.568-1.25-1.25-1.25h-2.5ZM11 5.5h2v.635a.761.761 0 0 0 0 .23V7.5h-2V6.373a.719.719 0 0 0 0-.242V5.5Zm.988 4.516a.73.73 0 0 0-.343.091c-.42.088-.819.288-1.065.688l-2.654 4.332a2.888 2.888 0 0 0-.041 2.947l1.18 2.051a.753.753 0 0 0 .652.375h4.568a.756.756 0 0 0 .65-.375l1.18-2.05a2.892 2.892 0 0 0-.039-2.948v-.002l-2.656-4.33c-.246-.4-.645-.6-1.065-.688a.733.733 0 0 0-.367-.091Zm-.738 2.556v4.178a.751.751 0 1 0 1.5 0v-4.178l2.047 3.338c.265.434.271.975.018 1.416L13.852 19h-3.704l-.962-1.674a1.38 1.38 0 0 1 .017-1.414c.002-.002.002-.002 0-.002l2.047-3.338ZM3 15.5h1.5V17H3v-1.5Zm16.5 0H21V17h-1.5v-1.5Z" fill="#1A1A1A"/></svg>