<svg width="24" height="24" fill="none" xmlns="http://www.w3.org/2000/svg"><path d="M20.227 3a.715.715 0 0 0-.143.02L10.25 5.252A2.26 2.26 0 0 0 8.5 7.447v8.7a4.293 4.293 0 0 0-2.25-.647c-.98 0-1.883.291-2.57.809-.69.517-1.18 1.3-1.18 2.191 0 .89.49 1.674 1.18 2.191.687.518 1.59.809 2.57.809.98 0 1.883-.291 2.57-.809.69-.517 1.18-1.3 1.18-2.191 0-.027-.02-.047-.02-.072a.786.786 0 0 0 .02-.178v-7.4l9.5-2.16v5.457a4.293 4.293 0 0 0-2.25-.647c-.98 0-1.883.291-2.57.809-.69.517-1.18 1.3-1.18 2.191 0 .89.49 1.674 1.18 2.191.687.518 1.59.809 2.57.809.98 0 1.883-.291 2.57-.809.69-.517 1.18-1.3 1.18-2.191 0-.027-.02-.047-.02-.072a.79.79 0 0 0 .02-.178V3.75a.75.75 0 0 0-.773-.75ZM19.5 4.69v2.46L10 9.31V7.448c0-.353.238-.652.584-.73L19.5 4.689ZM17.25 15c.676 0 1.275.21 1.672.508.394.299.578.64.578.992s-.184.693-.578.992c-.397.297-.996.508-1.672.508-.676 0-1.275-.21-1.672-.508-.394-.299-.578-.64-.578-.992s.184-.693.578-.992c.397-.297.996-.508 1.672-.508Zm-11 2c.676 0 1.275.21 1.672.508.394.299.578.64.578.992s-.184.693-.578.992c-.397.297-.996.508-1.672.508-.676 0-1.275-.21-1.672-.508-.394-.299-.578-.64-.578-.992s.184-.693.578-.992C4.975 17.21 5.574 17 6.25 17Z" fill="#1A1A1A"/></svg>