<svg width="24" height="24" fill="none" xmlns="http://www.w3.org/2000/svg"><path d="M5.75 3C4.24 3 3 4.24 3 5.75v12.5C3 19.76 4.24 21 5.75 21h12.5c1.51 0 2.75-1.24 2.75-2.75V5.75C21 4.24 19.76 3 18.25 3H5.75Zm0 1.5h12.5c.7 0 1.25.55 1.25 1.25v12.5c0 .7-.55 1.25-1.25 1.25H17v-3.75c0-.957-.793-1.75-1.75-1.75h-6.5C7.793 14 7 14.793 7 15.75v3.75H5.75c-.7 0-1.25-.55-1.25-1.25V5.75c0-.7.55-1.25 1.25-1.25ZM12 7c-.938 0-1.736.379-2.248.955C9.24 8.531 9 9.271 9 10c0 .729.24 1.469.752 2.045.512.576 1.31.955 2.248.955.938 0 1.736-.379 2.248-.955.512-.576.752-1.316.752-2.045 0-.729-.24-1.469-.752-2.045C13.736 7.38 12.938 7 12 7Zm0 1.5c.563 0 .889.184 1.127.451.238.268.373.653.373 1.049 0 .396-.135.781-.373 1.049-.238.267-.565.451-1.127.451-.563 0-.889-.184-1.127-.451-.238-.268-.373-.652-.373-1.049 0-.396.135-.781.373-1.049.238-.267.565-.451 1.127-.451Zm-3.25 7h6.5c.148 0 .25.102.25.25v3.75h-7v-3.75c0-.148.102-.25.25-.25Z" fill="#1A1A1A"/></svg>