<svg width="24" height="24" fill="none" xmlns="http://www.w3.org/2000/svg"><path d="M18 2.504c-.896 0-1.795.342-2.475 1.021l-3.947 3.946-3.377-3.756c-.002 0-.002-.002-.002-.002a3.264 3.264 0 0 0-2.345-1.07 3.268 3.268 0 0 0-2.395.95 3.285 3.285 0 0 0 .117 4.741l.002.002 9.506 8.762c.018.943.307 1.886 1.023 2.605.456.455 1.065.735 1.77 1.016.707.279 1.506.527 2.264.736 1.513.42 2.869.686 2.869.686.246.049.5-.028.676-.205a.745.745 0 0 0 .205-.676s-.266-1.356-.686-2.87a22.889 22.889 0 0 0-.736-2.263c-.282-.705-.56-1.314-1.016-1.77-.717-.716-1.66-1.005-2.601-1.023l-.586-.652 4.209-4.207a3.51 3.51 0 0 0 0-4.95A3.493 3.493 0 0 0 18 2.504Zm0 1.492a2 2 0 0 1 1.414.59 1.989 1.989 0 0 1 0 2.828l-.969.969-2.828-2.828.969-.97c.393-.392.904-.589 1.414-.589Zm-12.184.135c.465.012.928.209 1.27.588l5.627 6.258-1.947 1.945L4.59 7.227c-.002 0-.004-.002-.006-.004a1.758 1.758 0 0 1-.064-2.567 1.76 1.76 0 0 1 1.296-.525Zm8.739 2.486 2.828 2.828-2.12 2.12-.865-.958a.739.739 0 0 0-.189-.214l-1.625-1.805 1.97-1.97Zm-.836 5.477 1.69 1.879-1.68 1.681-1.86-1.714 1.85-1.846Zm-7.133.37L4.461 14.59c-.211.21-.367.475-.445.76L2.53 20.545a.744.744 0 0 0 .924.924l5.195-1.485a1.73 1.73 0 0 0 .76-.445l2.324-2.324-1.103-1.014-2.281 2.28a.288.288 0 0 1-.11.064l-3.9 1.115 1.115-3.9a.288.288 0 0 1 .065-.11l2.166-2.166-1.1-1.02Zm10.129 2.325c.605-.018 1.213.166 1.676.629.136.135.433.637.681 1.264.25.627.487 1.384.688 2.109.232.842.27 1.082.383 1.602-.52-.114-.76-.15-1.602-.383a21.397 21.397 0 0 1-2.11-.688c-.624-.248-1.126-.545-1.263-.681-.463-.463-.646-1.07-.629-1.676l2.176-2.176Z" fill="#1A1A1A"/></svg>