<svg width="22" height="20" viewBox="0 0 22 20" fill="none" xmlns="http://www.w3.org/2000/svg">
<path d="M15.25 0.5C14.0163 0.5 13 1.51625 13 2.75V3H1.75C1.65062 2.99859 1.55194 3.01696 1.45972 3.05402C1.36749 3.09108 1.28355 3.1461 1.21277 3.21588C1.142 3.28566 1.08579 3.36882 1.04743 3.46051C1.00907 3.5522 0.989319 3.65061 0.989319 3.75C0.989319 3.84939 1.00907 3.9478 1.04743 4.03949C1.08579 4.13118 1.142 4.21434 1.21277 4.28412C1.28355 4.3539 1.36749 4.40892 1.45972 4.44598C1.55194 4.48304 1.65062 4.50141 1.75 4.5H13V4.75C13 5.98375 14.0163 7 15.25 7C16.4838 7 17.5 5.98375 17.5 4.75V4.5H20.25C20.3494 4.50141 20.4481 4.48304 20.5403 4.44598C20.6325 4.40892 20.7164 4.3539 20.7872 4.28412C20.858 4.21434 20.9142 4.13118 20.9526 4.03949C20.9909 3.9478 21.0107 3.84939 21.0107 3.75C21.0107 3.65061 20.9909 3.5522 20.9526 3.46051C20.9142 3.36882 20.858 3.28566 20.7872 3.21588C20.7164 3.1461 20.6325 3.09108 20.5403 3.05402C20.4481 3.01696 20.3494 2.99859 20.25 3H17.5V2.75C17.5 1.51625 16.4838 0.5 15.25 0.5ZM15.25 2C15.6733 2 16 2.32675 16 2.75V3.62695C15.9868 3.70747 15.9868 3.7896 16 3.87012V4.75C16 5.17325 15.6733 5.5 15.25 5.5C14.8268 5.5 14.5 5.17325 14.5 4.75V3.87305C14.5132 3.79253 14.5132 3.7104 14.5 3.62988V2.75C14.5 2.32675 14.8268 2 15.25 2ZM6.75 6.75C5.51625 6.75 4.5 7.76625 4.5 9V9.25H1.75C1.65062 9.24859 1.55194 9.26696 1.45972 9.30402C1.36749 9.34108 1.28355 9.3961 1.21277 9.46588C1.142 9.53566 1.08579 9.61882 1.04743 9.71051C1.00907 9.8022 0.989319 9.90061 0.989319 10C0.989319 10.0994 1.00907 10.1978 1.04743 10.2895C1.08579 10.3812 1.142 10.4643 1.21277 10.5341C1.28355 10.6039 1.36749 10.6589 1.45972 10.696C1.55194 10.733 1.65062 10.7514 1.75 10.75H4.5V11C4.5 12.2338 5.51625 13.25 6.75 13.25C7.98375 13.25 9 12.2338 9 11V10.75H20.25C20.3494 10.7514 20.4481 10.733 20.5403 10.696C20.6325 10.6589 20.7164 10.6039 20.7872 10.5341C20.858 10.4643 20.9142 10.3812 20.9526 10.2895C20.9909 10.1978 21.0107 10.0994 21.0107 10C21.0107 9.90061 20.9909 9.8022 20.9526 9.71051C20.9142 9.61882 20.858 9.53566 20.7872 9.46588C20.7164 9.3961 20.6325 9.34108 20.5403 9.30402C20.4481 9.26696 20.3494 9.24859 20.25 9.25H9V9C9 7.76625 7.98375 6.75 6.75 6.75ZM6.75 8.25C7.17325 8.25 7.5 8.57675 7.5 9V9.87695C7.48677 9.95747 7.48677 10.0396 7.5 10.1201V11C7.5 11.4232 7.17325 11.75 6.75 11.75C6.32675 11.75 6 11.4232 6 11V10.123C6.01323 10.0425 6.01323 9.9604 6 9.87988V9C6 8.57675 6.32675 8.25 6.75 8.25ZM14.25 13C13.0163 13 12 14.0162 12 15.25V15.5H1.75C1.65062 15.4986 1.55194 15.517 1.45972 15.554C1.36749 15.5911 1.28355 15.6461 1.21277 15.7159C1.142 15.7857 1.08579 15.8688 1.04743 15.9605C1.00907 16.0522 0.989319 16.1506 0.989319 16.25C0.989319 16.3494 1.00907 16.4478 1.04743 16.5395C1.08579 16.6312 1.142 16.7143 1.21277 16.7841C1.28355 16.8539 1.36749 16.9089 1.45972 16.946C1.55194 16.983 1.65062 17.0014 1.75 17H12V17.25C12 18.4838 13.0163 19.5 14.25 19.5C15.4838 19.5 16.5 18.4838 16.5 17.25V17H20.25C20.3494 17.0014 20.4481 16.983 20.5403 16.946C20.6325 16.9089 20.7164 16.8539 20.7872 16.7841C20.858 16.7143 20.9142 16.6312 20.9526 16.5395C20.9909 16.4478 21.0107 16.3494 21.0107 16.25C21.0107 16.1506 20.9909 16.0522 20.9526 15.9605C20.9142 15.8688 20.858 15.7857 20.7872 15.7159C20.7164 15.6461 20.6325 15.5911 20.5403 15.554C20.4481 15.517 20.3494 15.4986 20.25 15.5H16.5V15.25C16.5 14.0162 15.4838 13 14.25 13ZM14.25 14.5C14.6733 14.5 15 14.8268 15 15.25V16.127C14.9868 16.2075 14.9868 16.2896 15 16.3701V17.25C15 17.6733 14.6733 18 14.25 18C13.8268 18 13.5 17.6733 13.5 17.25V16.373C13.5132 16.2925 13.5132 16.2104 13.5 16.1299V15.25C13.5 14.8268 13.8268 14.5 14.25 14.5Z" fill="black" fill-opacity="0.9"/>
</svg>
