<svg width="13" height="13" viewBox="0 0 13 13" fill="none" xmlns="http://www.w3.org/2000/svg">
<path d="M6.5 0C2.91406 0 0 2.91406 0 6.5V7C0 8.09766 0.902344 9 2 9H2.5C3.33594 9 4 9.66406 4 10.5V11C4 12.0977 4.90234 13 6 13H6.5C10.0859 13 13 10.0859 13 6.5C13 2.91406 10.0859 0 6.5 0ZM6.5 1C9.54297 1 12 3.45703 12 6.5C12 9.54297 9.54297 12 6.5 12H6C5.44141 12 5 11.5586 5 11V10.5C5 9.125 3.875 8 2.5 8H2C1.44141 8 1 7.55859 1 7V6.5C1 3.45703 3.45703 1 6.5 1ZM6 2C5.44922 2 5 2.44922 5 3C5 3.55078 5.44922 4 6 4C6.55078 4 7 3.55078 7 3C7 2.44922 6.55078 2 6 2ZM9 3C8.44922 3 8 3.44922 8 4C8 4.55078 8.44922 5 9 5C9.55078 5 10 4.55078 10 4C10 3.44922 9.55078 3 9 3ZM3 4C2.44922 4 2 4.44922 2 5C2 5.55078 2.44922 6 3 6C3.55078 6 4 5.55078 4 5C4 4.44922 3.55078 4 3 4ZM10 6C9.44922 6 9 6.44922 9 7C9 7.55078 9.44922 8 10 8C10.5508 8 11 7.55078 11 7C11 6.44922 10.5508 6 10 6ZM8 9C7.44922 9 7 9.44922 7 10C7 10.5508 7.44922 11 8 11C8.55078 11 9 10.5508 9 10C9 9.44922 8.55078 9 8 9Z" fill="#999999"/>
</svg>
