<svg width="24" height="24" viewBox="0 0 24 24" fill="none" xmlns="http://www.w3.org/2000/svg">
<path d="M12 2L11.5 2.5V12H12.707L19.0703 5.63672V4.92969C17.2598 3.11914 14.7598 2 12 2Z" fill="url(#paint0_linear_324_3329)"/>
<path d="M19.0703 4.92969L12 12L12.5 12.5H21.498L21.998 12C21.998 9.44141 21.0234 6.88086 19.0703 4.92969Z" fill="url(#paint1_linear_324_3329)"/>
<path d="M22 12H12V12.707L18.3633 19.0703H19.0703C20.8809 17.2598 22 14.7598 22 12Z" fill="url(#paint2_linear_324_3329)"/>
<path d="M19.0703 19.0703L12 12L11.5 12.5V21.498L12 21.998C14.5586 21.998 17.1191 21.0234 19.0703 19.0703Z" fill="url(#paint3_linear_324_3329)"/>
<path d="M12 22V12H11.293L4.92969 18.3633V19.0703C6.74023 20.8809 9.24023 22 12 22Z" fill="url(#paint4_linear_324_3329)"/>
<path d="M4.92969 19.0703L12 12L11.5 11.5H2.50195L2.00195 12C2.00195 14.5586 2.97656 17.1191 4.92969 19.0703Z" fill="url(#paint5_linear_324_3329)"/>
<path d="M2 12H12V11.293L5.63672 4.92969H4.92969C3.11914 6.74023 2 9.24023 2 12Z" fill="url(#paint6_linear_324_3329)"/>
<path d="M4.92969 4.92969L12 12V2.00195C9.44141 2.00195 6.88086 2.97656 4.92969 4.92969Z" fill="url(#paint7_linear_324_3329)"/>
<defs>
<linearGradient id="paint0_linear_324_3329" x1="8.379" y1="1.559" x2="15.4415" y2="8.621" gradientUnits="userSpaceOnUse">
<stop stop-color="#F44F5A"/>
<stop offset="0.443" stop-color="#EE3D4A"/>
<stop offset="1" stop-color="#E52030"/>
</linearGradient>
<linearGradient id="paint1_linear_324_3329" x1="17.0006" y1="0.0537004" x2="16.9998" y2="23.8828" gradientUnits="userSpaceOnUse">
<stop stop-color="#FED100"/>
<stop offset="1" stop-color="#E36001"/>
</linearGradient>
<linearGradient id="paint2_linear_324_3329" x1="20.535" y1="10.535" x2="15.1815" y2="15.8885" gradientUnits="userSpaceOnUse">
<stop stop-color="#FFD747"/>
<stop offset="0.482" stop-color="#FFD645"/>
<stop offset="1" stop-color="#F5BC00"/>
</linearGradient>
<linearGradient id="paint3_linear_324_3329" x1="19.0706" y1="16.9993" x2="11.4996" y2="16.9995" gradientUnits="userSpaceOnUse">
<stop stop-color="#33C481"/>
<stop offset="1" stop-color="#21A366"/>
</linearGradient>
<linearGradient id="paint4_linear_324_3329" x1="13.465" y1="20.535" x2="8.1115" y2="15.1815" gradientUnits="userSpaceOnUse">
<stop stop-color="#28AFEA"/>
<stop offset="1" stop-color="#0B88DA"/>
</linearGradient>
<linearGradient id="paint5_linear_324_3329" x1="7.00121" y1="20.1545" x2="7.00135" y2="12.5835" gradientUnits="userSpaceOnUse">
<stop offset="0.002" stop-color="#427FDB"/>
<stop offset="0.397" stop-color="#2668CB"/>
<stop offset="0.763" stop-color="#1358BF"/>
<stop offset="1" stop-color="#0C52BB"/>
</linearGradient>
<linearGradient id="paint6_linear_324_3329" x1="3.465" y1="13.465" x2="8.8185" y2="8.1115" gradientUnits="userSpaceOnUse">
<stop stop-color="#A235D4"/>
<stop offset="0.441" stop-color="#A033D1"/>
<stop offset="0.702" stop-color="#982CC9"/>
<stop offset="0.915" stop-color="#8B21BB"/>
<stop offset="1" stop-color="#831BB3"/>
</linearGradient>
<linearGradient id="paint7_linear_324_3329" x1="4.92809" y1="7.00071" x2="24.2636" y2="7.00001" gradientUnits="userSpaceOnUse">
<stop stop-color="#E83C67"/>
<stop offset="0.423" stop-color="#C5214A"/>
<stop offset="0.773" stop-color="#B01038"/>
<stop offset="1" stop-color="#A80A31"/>
</linearGradient>
</defs>
</svg>
